<?xml version="1.0" standalone="no"?>
<!DOCTYPE svg PUBLIC "-//W3C//DTD SVG 20010904//EN"
 "http://www.w3.org/TR/2001/REC-SVG-20010904/DTD/svg10.dtd">
<svg version="1.0" xmlns="http://www.w3.org/2000/svg"
 width="626.000000pt" height="626.000000pt" viewBox="0 0 626.000000 626.000000"
 preserveAspectRatio="xMidYMid meet">

<g transform="translate(0.000000,626.000000) scale(0.100000,-0.100000)"
fill="#000000" stroke="none">
<path d="M2042 5150 c-109 -29 -257 -98 -277 -130 -4 -6 -2 -17 4 -24 9 -10
-5 -23 -59 -60 -125 -83 -174 -137 -136 -152 9 -3 -5 -23 -44 -60 -54 -52
-120 -154 -120 -187 0 -8 6 -17 14 -20 12 -5 11 -14 -5 -58 -26 -68 -22 -103
11 -107 21 -2 142 35 201 62 13 6 21 -8 43 -71 43 -123 116 -243 204 -335 l35
-37 -17 -45 c-23 -59 -64 -115 -120 -162 -25 -21 -46 -46 -46 -55 0 -25 77
-88 117 -95 38 -7 38 -7 19 -37 -59 -91 -74 -268 -32 -370 30 -73 74 -137 94
-137 8 0 20 7 27 16 10 14 16 9 43 -39 17 -31 51 -71 75 -89 l43 -32 -43 -76
c-77 -134 -110 -258 -100 -373 7 -78 16 -86 61 -52 l36 27 0 -68 c0 -37 7
-109 16 -160 13 -72 15 -101 6 -135 -6 -24 -8 -47 -5 -52 3 -5 25 -6 48 -3
l43 7 5 -63 c4 -35 9 -144 13 -244 l6 -180 -43 -17 c-61 -23 -118 -73 -140
-121 -53 -118 20 -236 165 -266 63 -13 416 -11 416 3 0 5 -12 6 -27 3 -17 -4
-6 5 26 21 72 38 102 91 94 169 l-6 54 48 0 c27 0 63 5 81 12 28 10 35 9 58
-9 18 -14 22 -23 14 -26 -8 -3 -6 -6 5 -6 17 -1 18 -5 22 -103 1 -14 7 -33 14
-42 7 -8 9 -21 5 -28 -4 -7 -3 -10 1 -5 11 10 66 -43 58 -56 -3 -6 -1 -7 5 -4
5 4 18 4 29 0 11 -5 -17 -10 -72 -14 l-90 -6 100 -1 c55 -1 168 -5 250 -8 245
-11 335 14 380 104 12 23 24 40 26 37 3 -3 4 9 1 25 -2 17 0 30 6 30 21 0 42
-12 42 -24 0 -22 54 -72 105 -97 46 -22 61 -24 185 -23 197 1 282 32 321 117
20 46 25 127 9 157 -9 16 -3 29 33 74 83 101 127 227 127 367 l0 76 43 28
c170 113 286 286 324 489 19 100 13 321 -12 411 -23 84 -86 215 -140 290 -79
112 -200 200 -262 193 -31 -3 -33 -6 -76 -188 -28 -123 -76 -231 -138 -314
l-44 -58 -49 58 c-28 33 -86 94 -130 136 l-79 77 38 42 c77 86 111 207 94 340
-5 40 -11 81 -14 91 -3 10 -7 27 -10 37 -5 16 3 24 37 39 53 24 103 75 95 97
-4 8 -17 19 -29 24 -33 13 -74 59 -97 111 -30 66 -27 83 19 114 60 39 174 151
226 220 90 119 153 273 178 433 l12 77 37 8 c51 11 107 40 139 75 32 33 60 95
50 110 -23 35 -317 165 -462 205 -120 32 -278 32 -372 0 -137 -47 -249 -145
-314 -274 l-34 -67 -37 13 c-79 28 -131 58 -141 81 -14 30 -36 31 -78 6 -59
-36 -69 -35 -89 8 -9 22 -30 52 -46 67 l-29 28 -28 -21 c-49 -36 -88 -52 -241
-97 l-150 -44 -17 55 c-34 107 -131 225 -223 272 -102 53 -233 64 -359 31z
m312 -68 c110 -52 202 -164 228 -281 6 -29 18 -56 26 -59 28 -10 344 82 415
121 45 25 52 20 78 -55 11 -31 24 -52 31 -50 7 1 38 14 69 28 l56 26 27 -25
c26 -25 141 -78 198 -92 25 -7 29 -3 67 74 108 214 303 323 524 293 45 -6 127
-25 182 -42 103 -33 337 -139 349 -158 12 -19 -53 -80 -107 -100 -42 -16 -90
-20 -257 -25 -228 -6 -303 -21 -415 -80 -68 -36 -146 -111 -175 -168 -30 -57
-25 -57 29 0 61 64 81 66 44 4 -18 -32 -23 -48 -15 -51 7 -2 12 -10 12 -18 0
-9 4 -13 10 -9 5 3 7 11 4 18 -2 7 20 40 50 73 54 60 111 95 211 129 47 16
222 34 329 35 l49 0 -7 -61 c-4 -34 -23 -104 -41 -156 -68 -190 -162 -317
-325 -439 l-88 -66 14 -46 c24 -80 54 -130 101 -171 l44 -40 -38 -20 c-22 -10
-56 -23 -77 -26 -26 -5 -36 -12 -32 -22 29 -75 40 -139 40 -238 1 -97 -2 -116
-23 -159 -31 -61 -133 -172 -149 -162 -7 4 -12 16 -12 27 0 31 -15 22 -33 -20
-10 -21 -34 -60 -53 -86 -20 -25 -34 -48 -32 -51 3 -2 24 9 49 24 24 16 50 27
57 24 7 -2 28 8 47 23 l35 26 98 -98 c99 -100 256 -296 245 -307 -4 -3 -17 -6
-30 -6 -13 0 -23 -3 -23 -7 0 -3 20 -40 44 -82 73 -124 142 -279 177 -396 30
-100 34 -122 34 -240 0 -175 -27 -256 -124 -373 l-49 -59 15 -47 c20 -59 6
-116 -38 -157 -33 -31 -116 -56 -132 -40 -19 19 -21 125 -2 160 9 18 14 35 12
38 -11 10 -47 -38 -57 -78 -10 -38 -9 -60 6 -111 5 -16 -3 -18 -65 -18 -80 0
-87 6 -97 83 -5 33 -1 56 15 92 12 26 20 50 18 51 -2 2 -16 -9 -32 -26 -32
-33 -45 -108 -27 -159 9 -27 9 -31 -6 -31 -26 0 -79 36 -99 66 -10 15 -17 44
-17 65 2 78 65 137 192 180 l60 20 -24 26 c-81 87 -110 215 -79 343 5 18 4 21
-3 10 -5 -8 -15 -40 -22 -71 -15 -68 -1 -189 29 -247 l19 -37 -72 -34 c-39
-19 -74 -37 -78 -39 -5 -2 -8 6 -8 18 0 12 -4 18 -11 15 -5 -4 -3 10 7 32 69
159 90 343 59 528 l-13 80 -1 -105 c-3 -227 -25 -331 -116 -529 -29 -64 -63
-152 -75 -195 -41 -149 -65 -173 -181 -183 -56 -6 -59 -5 -69 21 -15 39 -12
117 5 166 14 38 13 41 -1 29 -41 -33 -59 -140 -34 -203 l10 -26 -65 0 c-79 0
-97 14 -115 89 -12 50 -9 82 16 157 4 14 -1 12 -19 -8 -35 -38 -45 -109 -23
-169 9 -26 16 -49 16 -52 0 -4 -19 1 -42 9 -145 51 -136 215 15 289 l54 26
-14 52 c-27 105 -36 230 -23 337 6 56 18 122 25 148 20 65 12 63 -13 -3 -40
-104 -55 -209 -48 -330 3 -60 9 -124 12 -141 5 -28 2 -33 -39 -58 -25 -14 -55
-38 -67 -53 l-21 -27 -46 26 c-103 58 -233 158 -323 248 -108 107 -158 189
-190 312 -15 57 -19 65 -19 38 -1 -60 28 -162 66 -230 22 -40 74 -103 133
-163 l97 -99 -17 -56 c-10 -32 -21 -88 -25 -127 -9 -86 -25 -118 -67 -138 -42
-19 -152 -41 -172 -34 -17 7 -36 68 -36 117 1 19 9 59 19 88 l18 53 -22 -21
c-41 -39 -57 -157 -30 -222 6 -16 1 -18 -49 -18 -42 0 -61 5 -75 19 -43 43
-51 154 -16 221 20 39 3 39 -25 0 -30 -42 -38 -132 -17 -183 18 -42 18 -42
-27 -23 -50 21 -76 60 -76 116 0 68 40 119 126 161 l67 33 -7 221 c-7 218 -17
339 -28 351 -3 3 -20 -2 -37 -11 l-31 -16 0 45 c0 24 -7 81 -16 127 -21 109
-15 189 18 261 l26 57 -26 -10 c-14 -6 -48 -26 -74 -45 l-48 -34 0 63 c0 103
47 228 127 341 31 43 34 51 20 60 -78 53 -100 73 -124 114 -15 25 -32 71 -38
101 -6 30 -16 56 -23 59 -6 2 -23 -16 -39 -39 l-28 -42 -30 64 c-27 57 -30 74
-30 159 1 82 4 103 28 154 15 33 39 75 52 92 14 18 25 35 25 37 0 2 -26 7 -58
11 -32 4 -73 16 -92 27 l-34 21 41 37 c56 50 89 98 123 177 l28 68 -56 61
c-74 78 -128 161 -168 255 -52 123 -54 112 28 155 67 35 149 89 298 195 93 67
174 85 258 59 42 -14 36 -33 -11 -37 -36 -3 -47 -14 -27 -27 6 -4 17 -22 25
-41 21 -51 55 -42 35 10 -9 25 -8 26 25 26 19 0 35 3 35 8 0 12 -53 86 -75
104 -31 25 -100 41 -150 35 -54 -8 -108 -34 -195 -95 -124 -87 -205 -139 -280
-179 -79 -43 -259 -118 -266 -110 -10 9 39 123 76 179 40 61 46 85 13 56 -63
-54 -46 -12 19 48 24 22 64 54 91 72 48 34 51 47 14 61 -19 7 -17 11 29 44 27
20 84 55 127 77 42 23 77 45 77 51 0 5 -10 14 -22 18 -21 8 -16 12 42 40 165
78 314 89 434 33z m2129 -1811 c119 -82 223 -245 268 -420 60 -236 15 -492
-119 -671 -43 -57 -157 -160 -178 -160 -6 0 -14 20 -18 45 -12 90 -86 277
-170 434 -25 47 -46 86 -46 88 0 2 6 3 14 3 7 0 19 7 27 16 14 17 15 15 -49
94 l-42 52 43 48 c80 89 151 250 182 413 8 43 15 81 15 83 0 13 37 0 73 -25z
m-1760 -1812 c-23 -8 -25 -6 -17 15 5 13 9 14 21 4 13 -10 13 -13 -4 -19z m54
5 c-3 -3 -12 -4 -19 -1 -8 3 -5 6 6 6 11 1 17 -2 13 -5z"/>
<path d="M3696 4413 c-4 -9 -3 -20 1 -24 4 -4 9 3 9 17 2 28 -1 31 -10 7z"/>
<path d="M3786 4313 c-6 -14 -5 -15 5 -6 7 7 10 15 7 18 -3 3 -9 -2 -12 -12z"/>
<path d="M3819 4242 c5 -34 6 -35 9 -8 2 16 0 32 -5 37 -5 5 -7 -7 -4 -29z"/>
<path d="M3871 4164 c0 -11 3 -14 6 -6 3 7 2 16 -1 19 -3 4 -6 -2 -5 -13z"/>
<path d="M3853 4065 c-1 -38 3 -83 7 -100 7 -28 8 -28 8 10 0 22 -4 67 -8 100
l-7 60 0 -70z"/>
<path d="M3832 4090 c0 -14 2 -19 5 -12 2 6 2 18 0 25 -3 6 -5 1 -5 -13z"/>
<path d="M2353 4038 c-54 -18 -95 -69 -101 -127 l-5 -51 44 -20 c69 -31 206
-23 231 14 15 21 8 91 -12 123 -34 57 -96 81 -157 61z m95 -66 c4 -28 -24 -40
-45 -19 -14 13 -14 19 -3 32 18 22 44 15 48 -13z"/>
<path d="M3253 4009 c-36 -23 -73 -91 -73 -135 0 -42 44 -66 135 -72 58 -4 81
0 118 16 43 19 47 24 47 55 0 49 -39 116 -80 138 -46 25 -107 24 -147 -2z
m112 -44 c0 -22 -31 -33 -47 -17 -17 17 -1 44 24 40 15 -2 23 -10 23 -23z"/>
<path d="M2762 3769 c-98 -16 -162 -67 -162 -127 0 -30 37 -70 71 -77 17 -4
35 -16 40 -29 36 -79 195 -76 230 3 9 19 23 33 40 36 37 8 69 41 69 71 0 85
-145 147 -288 123z m36 -61 c-3 -7 -16 -15 -31 -19 -15 -4 -36 -17 -45 -29
-13 -17 -24 -21 -40 -16 -12 4 -22 13 -22 20 0 17 25 38 42 35 35 -4 79 2 73
11 -3 6 1 10 10 10 9 0 15 -5 13 -12z m91 -4 c2 -2 -12 -4 -32 -4 -20 0 -37 4
-37 10 0 8 58 3 69 -6z"/>
<path d="M2335 3446 c-27 -27 -31 -41 -14 -51 5 -4 21 5 35 20 13 15 29 25 35
23 12 -4 56 -84 107 -195 18 -39 50 -95 71 -123 22 -29 41 -68 45 -89 10 -61
63 -131 125 -163 72 -38 181 -40 257 -4 60 28 115 89 134 148 8 24 38 73 67
109 29 36 82 117 119 180 36 63 68 116 70 118 2 3 15 -6 29 -19 20 -19 28 -21
38 -11 9 10 4 19 -25 47 -63 57 -140 43 -191 -35 -52 -79 -133 -118 -219 -107
-57 8 -133 43 -162 75 -25 28 -32 27 -77 -13 -100 -91 -234 -70 -315 49 -33
50 -46 61 -72 63 -23 2 -38 -3 -57 -22z m547 -250 c25 -16 28 -16 53 0 16 10
47 18 76 18 40 1 53 -4 76 -26 75 -75 -13 -265 -139 -298 -147 -40 -285 41
-296 173 -5 62 14 113 50 136 51 32 129 31 180 -3z"/>
<path d="M2554 2954 c73 -150 248 -235 415 -200 120 25 202 79 265 175 47 69
46 87 0 27 -105 -138 -277 -202 -434 -162 -98 25 -168 76 -248 181 -22 29 -22
28 2 -21z"/>
<path d="M2702 1370 c0 -14 2 -19 5 -12 2 6 2 18 0 25 -3 6 -5 1 -5 -13z"/>
<path d="M2890 1290 c0 -5 5 -10 10 -10 6 0 10 5 10 10 0 6 -4 10 -10 10 -5 0
-10 -4 -10 -10z"/>
<path d="M3590 1139 c0 -5 9 -9 20 -9 11 0 20 2 20 4 0 2 -9 6 -20 9 -11 3
-20 1 -20 -4z"/>
<path d="M2643 1133 c9 -2 25 -2 35 0 9 3 1 5 -18 5 -19 0 -27 -2 -17 -5z"/>
</g>
</svg>
